<svg xmlns="http://www.w3.org/2000/svg" viewBox="0 0 128 128" shape-rendering="crispEdges">
  <ellipse cx="64" cy="104" rx="38" ry="9" fill="#05070c" opacity=".32"/>
  <path d="M42 88 78 52l9 9-36 36z" fill="#79512e"/>
  <path d="M26 32c22-18 58-10 76 8-18 20-58 24-82 12 14 0 42-2 58-12-22-8-40-7-52-8z" fill="#ffd166"/>
  <path d="M28 34c20 10 44 10 68 4" fill="none" stroke="#fff8b3" stroke-width="6"/>
  <path d="M20 50c20 10 58 13 82-10" fill="none" stroke="#b97d1e" stroke-width="5"/>
  <path d="M84 34h14v12H84z" fill="#5b3a22"/>
  <path d="M46 66h14v14H46z" fill="#67f5d3"/>
</svg>
