<svg xmlns="http://www.w3.org/2000/svg" viewBox="0 0 64 64" shape-rendering="crispEdges">
  <defs>
    <linearGradient id="rock" x1="0" x2="0" y1="0" y2="1">
      <stop offset="0%" stop-color="#585a62" />
      <stop offset="100%" stop-color="#21242c" />
    </linearGradient>
    <linearGradient id="ore" x1="0" x2="1" y1="0" y2="1">
      <stop offset="0%" stop-color="#eefeff" />
      <stop offset="50%" stop-color="#6ff5d2" />
      <stop offset="100%" stop-color="#1f8d86" />
    </linearGradient>
  </defs>
  <ellipse cx="31" cy="45" rx="23" ry="11" fill="#000" opacity=".2"/>
  <path d="M12 16h35l11 12-4 17-15 13H14L4 39l6-16z" fill="url(#rock)"/>
  <path d="M16 21h26l8 8-2 12-11 7H17l-8-7 4-11z" fill="#6f707a"/>
  <path d="M20 25h20l6 5-2 9-8 5H21l-6-5 3-8z" fill="url(#ore)"/>
  <rect x="25" y="29" width="6" height="4" fill="#f7ffff"/>
  <rect x="34" y="30" width="4" height="4" fill="#ddfff8"/>
  <rect x="29" y="35" width="8" height="4" fill="#2da89a"/>
  <rect x="23" y="33" width="3" height="3" fill="#176f74"/>
  <rect x="40" y="28" width="4" height="4" fill="#176f74"/>
  <rect x="18" y="30" width="4" height="4" fill="#176f74"/>
  <rect x="36" y="40" width="4" height="3" fill="#1f8d86"/>
</svg>
