<svg xmlns="http://www.w3.org/2000/svg" viewBox="0 0 64 64" shape-rendering="crispEdges">
  <defs>
    <linearGradient id="rock" x1="0" x2="0" y1="0" y2="1">
      <stop offset="0%" stop-color="#5d5c63" />
      <stop offset="100%" stop-color="#25242b" />
    </linearGradient>
    <linearGradient id="ore" x1="0" x2="1" y1="0" y2="1">
      <stop offset="0%" stop-color="#f1f3ff" />
      <stop offset="55%" stop-color="#8ea6ff" />
      <stop offset="100%" stop-color="#4f5f9f" />
    </linearGradient>
  </defs>
  <ellipse cx="32" cy="44" rx="20" ry="10" fill="#000" opacity=".18"/>
  <path d="M17 18h29l10 9-4 17-13 11H17L7 40l5-15z" fill="url(#rock)"/>
  <path d="M20 23h23l7 6-3 12-10 7H19l-7-8 4-10z" fill="#6a6971"/>
  <path d="M23 26h18l5 4-2 9-7 5H22l-5-5 3-7z" fill="url(#ore)"/>
  <rect x="27" y="30" width="6" height="4" fill="#f7fbff"/>
  <rect x="35" y="32" width="4" height="3" fill="#dbe5ff"/>
  <rect x="31" y="36" width="7" height="3" fill="#5a71bf"/>
  <rect x="24" y="34" width="3" height="3" fill="#31417d"/>
  <rect x="40" y="28" width="3" height="3" fill="#31417d"/>
  <rect x="19" y="30" width="3" height="3" fill="#31417d"/>
</svg>
